<svg width="17" height="16" viewBox="0 0 17 16" fill="none" xmlns="http://www.w3.org/2000/svg">
<path d="M8.5 0C4.0888 0 0.5 3.5888 0.5 8C0.5 12.4112 4.0888 16 8.5 16C12.9112 16 16.5 12.4112 16.5 8C16.5 3.5888 12.9112 0 8.5 0ZM8.5 1.6C8.9416 1.6 9.3 1.9584 9.3 2.4C9.3 2.8416 8.9416 3.2 8.5 3.2C8.0584 3.2 7.7 2.8416 7.7 2.4C7.7 1.9584 8.0584 1.6 8.5 1.6ZM2.9 8.8C2.4584 8.8 2.1 8.4416 2.1 8C2.1 7.5584 2.4584 7.2 2.9 7.2C3.3416 7.2 3.7 7.5584 3.7 8C3.7 8.4416 3.3416 8.8 2.9 8.8ZM3.8072 3.6C4.028 3.2176 4.5176 3.0864 4.9 3.3072C5.2824 3.528 5.4136 4.0176 5.1928 4.4C4.972 4.7824 4.4824 4.9136 4.1 4.6928C3.7176 4.472 3.5864 3.9824 3.8072 3.6ZM5.1928 12.4C4.972 12.7824 4.4832 12.9136 4.1 12.6928C3.7176 12.472 3.5864 11.9824 3.8072 11.6C4.028 11.2176 4.5176 11.0864 4.9 11.3072C5.2832 11.528 5.4136 12.0168 5.1928 12.4ZM8.5 9.2C7.8376 9.2 7.3 8.6624 7.3 8C7.3 7.3376 7.8376 6.8 8.5 6.8C8.5216 6.8 8.5416 6.8048 8.5624 6.8064L12.1688 3.2L13.3 4.3312L9.6936 7.9376C9.6952 7.9584 9.7 7.9784 9.7 8C9.7 8.6624 9.1624 9.2 8.5 9.2ZM13.1928 12.4C12.972 12.7824 12.4824 12.9136 12.1 12.6928C11.7176 12.472 11.5864 11.9824 11.8072 11.6C12.028 11.2176 12.5176 11.0864 12.9 11.3072C13.2824 11.528 13.4136 12.0168 13.1928 12.4ZM14.1 8.8C13.6584 8.8 13.3 8.4416 13.3 8C13.3 7.5584 13.6584 7.2 14.1 7.2C14.5416 7.2 14.9 7.5584 14.9 8C14.9 8.4416 14.5416 8.8 14.1 8.8Z" fill="#081C15"/>
</svg>
