<svg width="16" height="16" viewBox="0 0 16 16" fill="none" xmlns="http://www.w3.org/2000/svg">
<path d="M7.96837 0.310039C7.95462 0.312539 7.94087 0.316289 7.92837 0.320039C7.77962 0.353789 7.67462 0.487539 7.67837 0.640039V1.92004C7.67712 2.03504 7.73712 2.14254 7.83712 2.20129C7.93712 2.25879 8.05962 2.25879 8.15962 2.20129C8.25962 2.14254 8.31962 2.03504 8.31837 1.92004V0.640039C8.32212 0.547539 8.28462 0.458789 8.21837 0.396289C8.15087 0.332539 8.05962 0.301289 7.96837 0.310039ZM3.19837 2.30004C3.07837 2.32129 2.98212 2.40879 2.94837 2.52504C2.91462 2.64254 2.94962 2.76754 3.03837 2.85004L3.92837 3.75004C4.05587 3.87754 4.26087 3.87754 4.38837 3.75004C4.51587 3.62254 4.51587 3.41754 4.38837 3.29004L3.48837 2.40004C3.42212 2.32879 3.32587 2.29254 3.22837 2.30004C3.21837 2.30004 3.20837 2.30004 3.19837 2.30004ZM12.6984 2.30004C12.6259 2.31004 12.5584 2.34629 12.5084 2.40004L11.6084 3.29004C11.4809 3.41754 11.4809 3.62254 11.6084 3.75004C11.7359 3.87754 11.9409 3.87754 12.0684 3.75004L12.9584 2.85004C13.0584 2.75504 13.0871 2.60629 13.0284 2.48129C12.9684 2.35504 12.8359 2.28254 12.6984 2.30004ZM7.99837 2.88004C5.52212 2.88004 3.51837 4.88379 3.51837 7.36004C3.51837 8.92504 4.21962 9.97629 4.87837 10.75C5.20837 11.1375 5.52712 11.4638 5.74837 11.75C5.96962 12.0363 6.07837 12.2663 6.07837 12.48V14.08C6.07837 14.6238 6.49462 15.04 7.03837 15.04H7.28837C7.46212 15.2338 7.70837 15.36 7.99837 15.36C8.28837 15.36 8.53462 15.2338 8.70837 15.04H8.95837C9.50212 15.04 9.91837 14.6238 9.91837 14.08V12.48C9.91837 12.2663 10.0271 12.0438 10.2484 11.76C10.4696 11.4763 10.7884 11.145 11.1184 10.76C11.7784 9.98879 12.4784 8.94004 12.4784 7.36004C12.4784 4.88379 10.4746 2.88004 7.99837 2.88004ZM7.99837 3.52004C10.1309 3.52004 11.8384 5.22754 11.8384 7.36004C11.8384 8.75629 11.2584 9.62504 10.6384 10.35C10.3284 10.7125 10.0071 11.0288 9.74837 11.36C9.55837 11.6025 9.42212 11.8713 9.34837 12.16H6.64837C6.57462 11.87 6.43837 11.605 6.24837 11.36C5.98962 11.0263 5.66837 10.705 5.35837 10.34C4.73712 9.61004 4.15837 8.73879 4.15837 7.36004C4.15837 5.22754 5.86587 3.52004 7.99837 3.52004ZM1.18837 7.04004C1.01212 7.06504 0.888367 7.22879 0.913367 7.40504C0.938367 7.58129 1.10212 7.70504 1.27837 7.68004H2.55837C2.67337 7.68129 2.78087 7.62129 2.83962 7.52129C2.89712 7.42129 2.89712 7.29879 2.83962 7.19879C2.78087 7.09879 2.67337 7.03879 2.55837 7.04004H1.27837C1.26837 7.04004 1.25837 7.04004 1.24837 7.04004C1.23837 7.04004 1.22837 7.04004 1.21837 7.04004C1.20837 7.04004 1.19837 7.04004 1.18837 7.04004ZM13.3484 7.04004C13.1721 7.06504 13.0484 7.22879 13.0734 7.40504C13.0984 7.58129 13.2621 7.70504 13.4384 7.68004H14.7184C14.8334 7.68129 14.9409 7.62129 14.9996 7.52129C15.0571 7.42129 15.0571 7.29879 14.9996 7.19879C14.9409 7.09879 14.8334 7.03879 14.7184 7.04004H13.4384C13.4284 7.04004 13.4184 7.04004 13.4084 7.04004C13.3984 7.04004 13.3884 7.04004 13.3784 7.04004C13.3684 7.04004 13.3584 7.04004 13.3484 7.04004ZM11.8084 10.87C11.7946 10.8725 11.7809 10.8763 11.7684 10.88C11.6484 10.9013 11.5521 10.9888 11.5184 11.105C11.4846 11.2225 11.5196 11.3475 11.6084 11.43L12.5084 12.32C12.5859 12.415 12.7096 12.4588 12.8296 12.4313C12.9484 12.4038 13.0421 12.31 13.0696 12.1913C13.0971 12.0713 13.0534 11.9475 12.9584 11.87L12.0684 10.97C12.0021 10.8988 11.9059 10.8625 11.8084 10.87ZM4.11837 10.88C4.04712 10.8875 3.97962 10.92 3.92837 10.97L3.03837 11.87C2.94337 11.9475 2.89962 12.0713 2.92712 12.1913C2.95462 12.31 3.04837 12.4038 3.16712 12.4313C3.28712 12.4588 3.41087 12.415 3.48837 12.32L4.38837 11.43C4.49212 11.3338 4.51962 11.1813 4.45712 11.055C4.39587 10.9275 4.25712 10.8575 4.11837 10.88ZM6.71837 13.44H7.03837C7.23087 13.44 7.35837 13.5675 7.35837 13.76C7.35837 13.9525 7.23087 14.08 7.03837 14.08H6.71837V13.44ZM7.99837 13.44H9.27837V14.08H7.99837C7.80587 14.08 7.67837 13.9525 7.67837 13.76C7.67837 13.5675 7.80587 13.44 7.99837 13.44Z" fill="black"/>
</svg>
