<svg width="16" height="16" viewBox="0 0 16 16" fill="none" xmlns="http://www.w3.org/2000/svg">
<path d="M8 0C3.5885 0 0 3.5885 0 8C0 12.4115 3.5885 16 8 16C12.4115 16 16 12.4115 16 8C16 3.5885 12.4115 0 8 0ZM8 14.6405C5.89752 14.6405 4.02353 13.6554 2.80627 12.1255C3.65417 11.016 4.83696 10.2093 6.17935 9.82484C5.696 9.5178 5.29797 9.09375 5.02212 8.59196C4.74627 8.09016 4.60153 7.52687 4.60131 6.95425C4.60131 5.08026 6.12601 3.55556 8 3.55556C9.87399 3.55556 11.3987 5.08026 11.3987 6.95425C11.3982 7.52695 11.2533 8.09027 10.9774 8.59212C10.7015 9.09397 10.3034 9.51813 9.82013 9.82536C11.1628 10.2096 12.3458 11.0163 13.1937 12.126C11.9765 13.6554 10.1025 14.6405 8 14.6405Z" fill="#081C15"/>
</svg>
