<svg width="256" height="256" viewBox="0 0 256 256" fill="none" xmlns="http://www.w3.org/2000/svg">
<path d="M15.9883 16C15.9883 16 15.9883 76.3413 55.2096 115.563C97.4496 157.803 154.772 154.784 154.772 154.784C154.772 154.784 157.791 97.4613 115.551 55.2213C76.3296 16 15.9883 16 15.9883 16Z" fill="#21AD64"/>
<path d="M71.6941 43.744C68.7448 43.744 66.3608 46.1333 66.3608 49.0773V58.8266L45.4061 37.872C43.3208 35.7867 39.9501 35.7867 37.8648 37.872C35.7794 39.9573 35.7794 43.328 37.8648 45.4133L67.4541 75.0026C67.7794 75.4506 68.1581 75.8293 68.6114 76.16L81.5554 89.1093H68.0301C65.0861 89.1093 62.6968 91.4933 62.6968 94.4426C62.6968 97.3866 65.0808 99.776 68.0301 99.776H92.2221L154.771 162.325C155.811 163.365 157.177 163.888 158.542 163.888C159.907 163.888 161.273 163.365 162.313 162.325C164.398 160.24 164.398 156.869 162.313 154.784L77.0274 69.4933V49.0773C77.0274 46.1333 74.6381 43.744 71.6941 43.744Z" fill="#9DFFCE"/>
<path opacity="0.05" d="M111.756 95.4774C118.535 88.6987 125.916 82.9707 133.548 77.9894C131.692 74.9974 129.676 72.0214 127.484 69.0774C119.372 74.4267 111.516 80.6401 104.215 87.9414C90.7267 101.429 80.8173 116.096 73.5 130.656C76.5773 132.747 79.6707 134.661 82.7747 136.405C89.6493 122.384 98.9507 108.283 111.756 95.4774Z" fill="black"/>
<path opacity="0.07" d="M106.103 89.8187C92.8073 103.115 83.0526 117.712 75.8633 132.24C77.3726 133.221 78.8926 134.149 80.4073 135.045C87.3886 120.853 96.8926 106.571 109.874 93.5894C116.802 86.6614 124.306 80.736 132.093 75.6534C131.143 74.192 130.146 72.7307 129.111 71.28C121.053 76.5387 113.277 82.6454 106.103 89.8187Z" fill="black"/>
<path d="M239.978 42.6773C239.978 42.6773 159.141 40.544 107.984 91.7013C52.8902 146.795 58.9596 223.696 58.9596 223.696C58.9596 223.696 135.861 229.765 190.954 174.672C242.106 123.515 239.978 42.6773 239.978 42.6773Z" fill="#33C481"/>
<path d="M137.831 189.76C137.831 186.816 135.447 184.427 132.497 184.427H105.772L174.305 115.893H202.268C205.212 115.893 207.601 113.509 207.601 110.56C207.601 107.611 205.217 105.227 202.268 105.227H184.972L217.351 72.848C219.431 70.768 219.436 67.392 217.351 65.3066C215.265 63.2213 211.889 63.2266 209.809 65.3066L135.948 139.168V106.789C135.948 103.845 133.564 101.456 130.615 101.456C127.665 101.456 125.281 103.84 125.281 106.789V149.835L47.644 227.472C45.564 229.552 45.5587 232.928 47.644 235.013C49.7294 237.099 53.1054 237.093 55.1854 235.013L95.1054 195.093H132.492C135.447 195.088 137.831 192.704 137.831 189.76Z" fill="#9DFFCE"/>
</svg>
