<svg width="512" height="512" viewBox="0 0 512 512" fill="none" xmlns="http://www.w3.org/2000/svg">
<path d="M31.9805 32C31.9805 32 31.9805 152.683 110.423 231.125C194.903 315.605 309.548 309.568 309.548 309.568C309.548 309.568 315.586 194.923 231.106 110.443C152.663 32 31.9805 32 31.9805 32Z" fill="#21AD64"/>
<path d="M143.392 87.488C137.493 87.488 132.725 92.2666 132.725 98.1546V117.653L90.8161 75.744C86.6455 71.5733 79.9041 71.5733 75.7335 75.744C71.5628 79.9146 71.5628 86.656 75.7335 90.8266L134.912 150.005C135.563 150.901 136.32 151.659 137.227 152.32L163.115 178.219H136.064C130.176 178.219 125.397 182.987 125.397 188.885C125.397 194.773 130.165 199.552 136.064 199.552H184.448L309.547 324.651C311.627 326.731 314.357 327.776 317.088 327.776C319.819 327.776 322.549 326.731 324.629 324.651C328.8 320.48 328.8 313.739 324.629 309.568L154.059 138.987V98.1546C154.059 92.2666 149.28 87.488 143.392 87.488Z" fill="#9DFFCE"/>
<path opacity="0.05" d="M223.508 190.955C237.065 177.397 251.828 165.941 267.092 155.979C263.38 149.995 259.348 144.043 254.964 138.155C238.74 148.853 223.028 161.28 208.425 175.883C181.449 202.859 161.631 232.192 146.996 261.312C153.151 265.493 159.337 269.323 165.545 272.811C179.295 244.768 197.897 216.565 223.508 190.955Z" fill="black"/>
<path opacity="0.07" d="M212.203 179.637C185.611 206.229 166.101 235.424 151.723 264.48C154.741 266.443 157.781 268.299 160.811 270.091C174.773 241.707 193.781 213.141 219.744 187.179C233.6 173.323 248.608 161.472 264.181 151.307C262.283 148.384 260.288 145.461 258.219 142.56C242.101 153.077 226.549 165.291 212.203 179.637Z" fill="black"/>
<path d="M479.956 85.3546C479.956 85.3546 318.282 81.088 215.967 183.403C105.78 293.589 117.919 447.392 117.919 447.392C117.919 447.392 271.722 459.531 381.908 349.344C484.212 247.029 479.956 85.3546 479.956 85.3546Z" fill="#33C481"/>
<path d="M275.657 379.52C275.657 373.632 270.889 368.853 264.991 368.853H211.54L348.607 231.787H404.532C410.42 231.787 415.199 227.019 415.199 221.12C415.199 215.221 410.431 210.453 404.532 210.453H369.94L434.697 145.696C438.857 141.536 438.868 134.784 434.697 130.613C430.527 126.443 423.775 126.453 419.615 130.613L271.892 278.336V213.579C271.892 207.691 267.124 202.912 261.225 202.912C255.327 202.912 250.559 207.68 250.559 213.579V299.669L95.2842 454.944C91.1242 459.104 91.1135 465.856 95.2842 470.027C99.4548 474.197 106.207 474.187 110.367 470.027L190.207 390.187H264.98C270.889 390.176 275.657 385.408 275.657 379.52Z" fill="#9DFFCE"/>
</svg>
