<svg width="64" height="64" viewBox="0 0 64 64" fill="none" xmlns="http://www.w3.org/2000/svg">
<path d="M3.99609 4C3.99609 4 3.99609 19.0853 13.8014 28.8907C24.3614 39.4507 38.6921 38.696 38.6921 38.696C38.6921 38.696 39.4468 24.3653 28.8868 13.8053C19.0814 4 3.99609 4 3.99609 4Z" fill="#21AD64"/>
<path d="M17.9226 10.936C17.1852 10.936 16.5892 11.5334 16.5892 12.2694V14.7067L11.3506 9.46803C10.8292 8.94669 9.98655 8.94669 9.46522 9.46803C8.94389 9.98936 8.94389 10.832 9.46522 11.3534L16.8626 18.7507C16.9439 18.8627 17.0386 18.9574 17.1519 19.04L20.3879 22.2774H17.0066C16.2706 22.2774 15.6732 22.8734 15.6732 23.6107C15.6732 24.3467 16.2692 24.944 17.0066 24.944H23.0546L38.6919 40.5814C38.9519 40.8414 39.2932 40.972 39.6346 40.972C39.9759 40.972 40.3172 40.8414 40.5772 40.5814C41.0986 40.06 41.0986 39.2174 40.5772 38.696L19.2559 17.3734V12.2694C19.2559 11.5334 18.6586 10.936 17.9226 10.936Z" fill="#9DFFCE"/>
<path opacity="0.05" d="M27.939 23.8693C29.6337 22.1746 31.479 20.7426 33.387 19.4973C32.923 18.7493 32.419 18.0053 31.871 17.2693C29.843 18.6066 27.879 20.16 26.0537 21.9853C22.6817 25.3573 20.2043 29.024 18.375 32.664C19.1443 33.1866 19.9177 33.6653 20.6937 34.1013C22.4123 30.596 24.7377 27.0706 27.939 23.8693Z" fill="black"/>
<path opacity="0.07" d="M26.5248 22.4546C23.2008 25.7786 20.7622 29.4279 18.9648 33.0599C19.3422 33.3053 19.7222 33.5373 20.1008 33.7613C21.8462 30.2133 24.2222 26.6426 27.4675 23.3973C29.1995 21.6653 31.0755 20.1839 33.0222 18.9133C32.7848 18.5479 32.5355 18.1826 32.2768 17.8199C30.2622 19.1346 28.3182 20.6613 26.5248 22.4546Z" fill="black"/>
<path d="M59.9955 10.6693C59.9955 10.6693 39.7862 10.136 26.9969 22.9253C13.2235 36.6986 14.7409 55.924 14.7409 55.924C14.7409 55.924 33.9662 57.4413 47.7395 43.668C60.5275 30.8786 59.9955 10.6693 59.9955 10.6693Z" fill="#33C481"/>
<path d="M34.4567 47.44C34.4567 46.704 33.8607 46.1067 33.1234 46.1067H26.442L43.5754 28.9733H50.566C51.302 28.9733 51.8994 28.3773 51.8994 27.64C51.8994 26.9027 51.3034 26.3067 50.566 26.3067H46.242L54.3367 18.212C54.8567 17.692 54.858 16.848 54.3367 16.3267C53.8154 15.8053 52.9714 15.8067 52.4514 16.3267L33.986 34.792V26.6973C33.986 25.9613 33.39 25.364 32.6527 25.364C31.9154 25.364 31.3194 25.96 31.3194 26.6973V37.4587L11.91 56.868C11.39 57.388 11.3887 58.232 11.91 58.7533C12.4314 59.2747 13.2754 59.2733 13.7954 58.7533L23.7754 48.7733H33.122C33.8607 48.772 34.4567 48.176 34.4567 47.44Z" fill="#9DFFCE"/>
</svg>
