<svg width="73" height="73" viewBox="0 0 73 73" fill="none" xmlns="http://www.w3.org/2000/svg">
<rect x="0.5" y="0.191406" width="72" height="72" rx="16" fill="#D8F3DC"/>
<path d="M34.5 33.1914C34.5 29.1914 32.5 21.1914 32.5 21.1914C32.5 21.1914 30.5 29.1914 30.5 33.1914C30.5 37.1914 30.5 48.1914 30.5 48.1914H34.5C34.5 48.1914 34.5 37.1914 34.5 33.1914Z" fill="#1B4332"/>
<path d="M42.5 31.1914C42.5 27.1914 40.5 19.1914 40.5 19.1914C40.5 19.1914 38.5 27.1914 38.5 31.1914C38.5 35.1914 38.5 50.1914 38.5 50.1914H42.5C42.5 50.1914 42.5 35.1914 42.5 31.1914Z" fill="#1B4332"/>
<path d="M50.5 33.1914C50.5 29.1914 48.5 21.1914 48.5 21.1914C48.5 21.1914 46.5 29.1914 46.5 33.1914C46.5 37.1914 46.5 48.1914 46.5 48.1914H50.5C50.5 48.1914 50.5 37.1914 50.5 33.1914Z" fill="#1B4332"/>
<path d="M26.5 35.1914C26.5 31.1914 24.5 23.1914 24.5 23.1914C24.5 23.1914 22.5 31.1914 22.5 35.1914C22.5 39.1914 22.5 48.1914 22.5 48.1914H26.5C26.5 48.1914 26.5 39.1914 26.5 35.1914Z" fill="#1B4332"/>
<path d="M52.5 17.1914C52.5 17.1914 50.5 25.1914 50.5 29.1914C50.5 33.1914 50.5 43.1914 50.5 43.1914C50.5 44.2964 49.605 45.1914 48.5 45.1914C47.395 45.1914 46.5 44.2964 46.5 43.1914C46.5 43.1914 46.5 37.1914 46.5 33.1914C46.5 29.1914 44.5 21.1914 44.5 21.1914C44.5 21.1914 42.5 29.1914 42.5 33.1914C42.5 37.1914 42.5 48.1914 42.5 48.1914C42.5 49.2964 41.605 50.1914 40.5 50.1914C39.395 50.1914 38.5 49.2964 38.5 48.1914C38.5 48.1914 38.5 33.1914 38.5 29.1914C38.5 25.1914 36.5 17.1914 36.5 17.1914C36.5 17.1914 34.5 25.1914 34.5 29.1914C34.5 33.1914 34.5 43.1914 34.5 43.1914C34.5 44.2964 33.605 45.1914 32.5 45.1914C31.395 45.1914 30.5 44.2964 30.5 43.1914C30.5 43.1914 30.5 35.1914 30.5 31.1914C30.5 27.1914 28.5 19.1914 28.5 19.1914C28.5 19.1914 26.5 27.1914 26.5 31.1914C26.5 35.1914 26.5 46.1914 26.5 46.1914C26.5 47.2964 25.605 48.1914 24.5 48.1914C23.395 48.1914 22.5 47.2964 22.5 46.1914C22.5 46.1914 22.5 33.1914 22.5 29.1914C22.5 25.1914 20.5 17.1914 20.5 17.1914C20.5 17.1914 18.5 25.1914 18.5 29.1914C18.5 33.1914 18.5 52.1914 18.5 52.1914C18.5 53.2964 19.395 54.1914 20.5 54.1914H52.5C53.605 54.1914 54.5 53.2964 54.5 52.1914C54.5 52.1914 54.5 33.1914 54.5 29.1914C54.5 25.1914 52.5 17.1914 52.5 17.1914Z" fill="#33C481"/>
</svg>
