<svg width="73" height="73" viewBox="0 0 73 73" fill="none" xmlns="http://www.w3.org/2000/svg">
<rect x="0.5" y="0.191406" width="72" height="72" rx="16" fill="#D8F3DC"/>
<g clip-path="url(#clip0_494_39662)">
<path d="M34.45 44.1416L33.5 58.1916L30.5 60.1916H41.5L38.5 58.1916L36.537 44.1416H34.45Z" fill="#6D4C41"/>
<path d="M37.796 13.9244C37.335 13.4574 36.683 13.1914 36 13.1914C35.317 13.1914 34.665 13.4574 34.204 13.9244C30.97 17.3424 24.5 26.2174 24.5 42.5244C24.5 48.4114 29.653 53.1914 36 53.1914C42.347 53.1914 47.5 48.4114 47.5 42.5244C47.5 26.2174 41.03 17.3424 37.796 13.9244Z" fill="#33C481"/>
<path d="M30.4006 46.1752L29.4816 45.1602C28.4116 43.9782 28.1516 42.1702 28.8346 40.6792C29.2486 39.7772 29.3256 38.7322 29.0496 37.7672L28.6076 36.2212L29.5186 37.2282C30.5686 38.3882 30.8416 40.1552 30.1986 41.6342L30.1306 41.7902C29.7436 42.6822 29.6796 43.7042 29.9536 44.6462L30.4006 46.1752Z" fill="#9DFFCE"/>
<path d="M35.3225 38.0414L34.4035 37.0264C33.3335 35.8444 33.0735 34.0364 33.7565 32.5454C34.1705 31.6434 34.2475 30.5984 33.9715 29.6334L33.5295 28.0874L34.4405 29.0944C35.4905 30.2544 35.7635 32.0214 35.1205 33.5004L35.0525 33.6564C34.6655 34.5484 34.6015 35.5704 34.8755 36.5124L35.3225 38.0414Z" fill="#9DFFCE"/>
<path d="M40.4084 49.1723L39.4894 48.1573C38.4194 46.9753 38.1594 45.1673 38.8424 43.6763C39.2564 42.7743 39.3334 41.7293 39.0574 40.7643L38.6154 39.2183L39.5264 40.2253C40.5764 41.3853 40.8494 43.1523 40.2064 44.6313L40.1384 44.7873C39.7514 45.6793 39.6874 46.7013 39.9614 47.6433L40.4084 49.1723Z" fill="#9DFFCE"/>
<path d="M42.3889 35.2055L41.4699 34.1905C40.3999 33.0085 40.1399 31.2005 40.8229 29.7095C41.2369 28.8075 41.3139 27.7625 41.0379 26.7975L40.5959 25.2515L41.5069 26.2585C42.5569 27.4185 42.8299 29.1855 42.1869 30.6645L42.1189 30.8205C41.7319 31.7125 41.6679 32.7345 41.9419 33.6765L42.3889 35.2055Z" fill="#9DFFCE"/>
<path d="M37.2483 27.0175L36.3293 26.0025C35.2593 24.8205 34.9993 23.0125 35.6823 21.5215C36.0963 20.6195 36.1733 19.5745 35.8973 18.6095L35.4553 17.0635L36.3663 18.0705C37.4163 19.2305 37.6893 20.9975 37.0463 22.4765L36.9783 22.6325C36.5913 23.5245 36.5273 24.5465 36.8013 25.4885L37.2483 27.0175Z" fill="#9DFFCE"/>
</g>
<defs>
<clipPath id="clip0_494_39662">
<rect width="48" height="48" fill="white" transform="translate(12.5 12.1914)"/>
</clipPath>
</defs>
</svg>
