<svg width="73" height="73" viewBox="0 0 73 73" fill="none" xmlns="http://www.w3.org/2000/svg">
<rect x="0.5" y="0.191406" width="72" height="72" rx="16" fill="#D8F3DC"/>
<path d="M57.5 54.1912H15.5C15.5 42.3412 18.58 34.7512 22.29 29.9812C22.9228 29.1648 23.6111 28.393 24.35 27.6712C27.08 24.9512 29.26 23.5012 31.65 22.7812C33.2301 22.3535 34.8634 22.1548 36.5 22.1912H36.59C41.31 22.2012 44.27 23.3012 48.65 27.6712C49.3889 28.393 50.0772 29.1648 50.71 29.9812C54.42 34.7512 57.5 42.3412 57.5 54.1912Z" fill="url(#paint0_linear_494_39698)"/>
<path d="M50.7091 29.9814L49.9132 30.7772C49.5382 31.1523 49.0295 31.363 48.499 31.363C47.9686 31.363 47.4599 31.1523 47.0848 30.7772L45.9132 29.6056C45.5382 29.2306 45.0295 29.0199 44.499 29.0199C43.9686 29.0199 43.4599 29.2306 43.0848 29.6056L41.9133 30.7772C41.5382 31.1523 41.0295 31.363 40.499 31.363C39.9686 31.363 39.4599 31.1523 39.0848 30.7772L37.9133 29.6056C37.5382 29.2306 37.0295 29.0199 36.499 29.0199C35.9686 29.0199 35.4599 29.2306 35.0848 29.6056L33.9133 30.7772C33.5382 31.1523 33.0295 31.363 32.499 31.363C31.9686 31.363 31.4599 31.1523 31.0848 30.7772L29.9133 29.6056C29.5382 29.2306 29.0295 29.0199 28.499 29.0199C27.9686 29.0199 27.4599 29.2306 27.0848 29.6056L25.9133 30.7772C25.5382 31.1523 25.0295 31.363 24.499 31.363C23.9686 31.363 23.4599 31.1523 23.0848 30.7772L22.2891 29.9814C22.9218 29.165 23.6101 28.3932 24.3491 27.6714C28.7591 23.2714 31.7291 22.1914 36.4991 22.1914C41.2691 22.1914 44.2391 23.2714 48.6491 27.6714C49.388 28.3932 50.0763 29.165 50.7091 29.9814Z" fill="#33C481"/>
<path d="M51.48 54.1912H30.45C28.43 52.9112 25.5 50.4112 25.5 46.6912C25.5 40.3212 36.5 36.5605 36.5 31.1905C36.5 27.9205 34.12 24.8212 31.65 22.7812C33.2301 22.3535 34.8634 22.1548 36.5 22.1912H36.59C38.91 23.8012 43.5 27.3512 43.5 31.1912C43.5 38.3512 38.53 41.5012 41.5 46.1912C44.07 50.2412 48.52 52.8912 51.48 54.1912Z" fill="#6D4C41"/>
<defs>
<linearGradient id="paint0_linear_494_39698" x1="24.339" y1="16.0922" x2="45.541" y2="74.3432" gradientUnits="userSpaceOnUse">
<stop stop-color="#33C481"/>
<stop offset="1" stop-color="#269063"/>
</linearGradient>
</defs>
</svg>
