<svg width="48" height="48" viewBox="0 0 48 48" fill="none" xmlns="http://www.w3.org/2000/svg">
<path d="M2.99609 3C2.99609 3 2.99609 14.314 10.3501 21.668C18.2701 29.588 29.0181 29.022 29.0181 29.022C29.0181 29.022 29.5841 18.274 21.6641 10.354C14.3101 3 2.99609 3 2.99609 3Z" fill="#33C481"/>
<path d="M13.4448 8.20199C12.8918 8.20199 12.4448 8.64999 12.4448 9.20199V11.03L8.51584 7.10099C8.12484 6.70999 7.49284 6.70999 7.10184 7.10099C6.71084 7.49199 6.71084 8.12399 7.10184 8.51499L12.6498 14.063C12.7108 14.147 12.7818 14.218 12.8668 14.28L15.2938 16.708H12.7578C12.2058 16.708 11.7578 17.155 11.7578 17.708C11.7578 18.26 12.2048 18.708 12.7578 18.708H17.2938L29.0218 30.436C29.2168 30.631 29.4728 30.729 29.7288 30.729C29.9848 30.729 30.2408 30.631 30.4358 30.436C30.8268 30.045 30.8268 29.413 30.4358 29.022L14.4448 13.03V9.20199C14.4448 8.64999 13.9968 8.20199 13.4448 8.20199Z" fill="#9DFFCE"/>
<path opacity="0.05" d="M20.9543 17.902C22.2253 16.631 23.6093 15.557 25.0403 14.623C24.6923 14.062 24.3142 13.504 23.9032 12.952C22.3822 13.955 20.9093 15.12 19.5403 16.489C17.0113 19.018 15.1532 21.768 13.7812 24.498C14.3583 24.89 14.9383 25.249 15.5203 25.576C16.8093 22.947 18.5533 20.303 20.9543 17.902Z" fill="#E8F5F1"/>
<path opacity="0.07" d="M19.8927 16.841C17.3997 19.334 15.5707 22.071 14.2227 24.795C14.5057 24.979 14.7907 25.153 15.0747 25.321C16.3837 22.66 18.1657 19.982 20.5997 17.548C21.8987 16.249 23.3057 15.138 24.7657 14.185C24.5877 13.911 24.4007 13.637 24.2067 13.365C22.6957 14.351 21.2377 15.496 19.8927 16.841Z" fill="#E8F5F1"/>
<path d="M44.9976 8.002C44.9976 8.002 29.8406 7.60201 20.2486 17.194C9.91863 27.524 11.0566 41.943 11.0566 41.943C11.0566 41.943 25.4756 43.081 35.8056 32.751C45.3966 23.159 44.9976 8.002 44.9976 8.002Z" fill="#33C481"/>
<path d="M25.8435 35.58C25.8435 35.028 25.3965 34.58 24.8435 34.58H19.8325L32.6825 21.73H37.9255C38.4775 21.73 38.9255 21.283 38.9255 20.73C38.9255 20.177 38.4785 19.73 37.9255 19.73H34.6825L40.7535 13.659C41.1435 13.269 41.1445 12.636 40.7535 12.245C40.3625 11.854 39.7295 11.855 39.3395 12.245L25.4905 26.094V20.023C25.4905 19.471 25.0435 19.023 24.4905 19.023C23.9375 19.023 23.4905 19.47 23.4905 20.023V28.094L8.9335 42.651C8.5435 43.041 8.5425 43.674 8.9335 44.065C9.3245 44.456 9.9575 44.455 10.3475 44.065L17.8325 36.58H24.8425C25.3965 36.579 25.8435 36.132 25.8435 35.58Z" fill="#9DFFCE"/>
</svg>
