<svg width="128" height="128" viewBox="0 0 128 128" fill="none" xmlns="http://www.w3.org/2000/svg">
<path d="M7.99609 8C7.99609 8 7.99609 38.1707 27.6068 57.7813C48.7268 78.9013 77.3881 77.392 77.3881 77.392C77.3881 77.392 78.8974 48.7307 57.7774 27.6107C38.1668 8 7.99609 8 7.99609 8Z" fill="#21AD64"/>
<path d="M35.849 21.8721C34.3743 21.8721 33.1823 23.0667 33.1823 24.5387V29.4134L22.705 18.9361C21.6623 17.8934 19.977 17.8934 18.9343 18.9361C17.8917 19.9787 17.8917 21.6641 18.9343 22.7067L33.729 37.5014C33.8917 37.7254 34.081 37.9147 34.3077 38.0801L40.7797 44.5547H34.017C32.545 44.5547 31.3503 45.7467 31.3503 47.2214C31.3503 48.6934 32.5423 49.8881 34.017 49.8881H46.113L77.3877 81.1627C77.9077 81.6827 78.5903 81.944 79.273 81.944C79.9557 81.944 80.6383 81.6827 81.1583 81.1627C82.201 80.12 82.201 78.4347 81.1583 77.392L38.5157 34.7467V24.5387C38.5157 23.0667 37.321 21.8721 35.849 21.8721Z" fill="#9DFFCE"/>
<path opacity="0.05" d="M55.878 47.7387C59.2673 44.3494 62.958 41.4854 66.774 38.9947C65.846 37.4987 64.838 36.0107 63.742 34.5387C59.686 37.2134 55.758 40.32 52.1073 43.9707C45.3633 50.7147 40.4087 58.048 36.75 65.328C38.2887 66.3734 39.8353 67.3307 41.3873 68.2027C44.8247 61.192 49.4753 54.1414 55.878 47.7387Z" fill="black"/>
<path opacity="0.07" d="M53.0497 44.9093C46.4017 51.5573 41.5244 58.856 37.9297 66.12C38.6844 66.6107 39.4444 67.0747 40.2017 67.5227C43.6924 60.4267 48.4444 53.2854 54.935 46.7947C58.399 43.3307 62.151 40.368 66.0444 37.8267C65.5697 37.096 65.071 36.3653 64.5537 35.64C60.5244 38.2693 56.6364 41.3227 53.0497 44.9093Z" fill="black"/>
<path d="M119.991 21.3387C119.991 21.3387 79.5724 20.2721 53.9937 45.8507C26.4471 73.3974 29.4817 111.848 29.4817 111.848C29.4817 111.848 67.9324 114.883 95.4791 87.3361C121.055 61.7574 119.991 21.3387 119.991 21.3387Z" fill="#33C481"/>
<path d="M68.9134 94.88C68.9134 93.408 67.7214 92.2133 66.2467 92.2133H52.8841L87.1507 57.9466H101.132C102.604 57.9466 103.799 56.7546 103.799 55.28C103.799 53.8053 102.607 52.6133 101.132 52.6133H92.4841L108.673 36.424C109.713 35.384 109.716 33.696 108.673 32.6533C107.631 31.6106 105.943 31.6133 104.903 32.6533L67.9721 69.584V53.3947C67.9721 51.9227 66.7801 50.728 65.3054 50.728C63.8307 50.728 62.6387 51.92 62.6387 53.3947V74.9173L23.8201 113.736C22.7801 114.776 22.7774 116.464 23.8201 117.507C24.8627 118.549 26.5507 118.547 27.5907 117.507L47.5507 97.5467H66.2441C67.7214 97.544 68.9134 96.352 68.9134 94.88Z" fill="#9DFFCE"/>
</svg>
