<svg width="1024" height="1024" viewBox="0 0 1024 1024" fill="none" xmlns="http://www.w3.org/2000/svg">
<path d="M63.957 64C63.957 64 63.957 305.365 220.842 462.251C389.802 631.211 619.093 619.136 619.093 619.136C619.093 619.136 631.168 389.845 462.208 220.885C305.322 64 63.957 64 63.957 64Z" fill="#21AD64"/>
<path d="M286.784 174.976C274.987 174.976 265.451 184.533 265.451 196.309V235.307L181.632 151.488C173.291 143.147 159.808 143.147 151.467 151.488C143.126 159.829 143.126 173.312 151.467 181.653L269.824 300.011C271.126 301.803 272.64 303.317 274.454 304.64L326.23 356.437H272.128C260.352 356.437 250.795 365.973 250.795 377.771C250.795 389.547 260.331 399.104 272.128 399.104H368.896L619.094 649.301C623.254 653.461 628.715 655.552 634.176 655.552C639.638 655.552 645.099 653.461 649.259 649.301C657.6 640.96 657.6 627.477 649.259 619.136L308.118 277.973V196.309C308.118 184.533 298.56 174.976 286.784 174.976Z" fill="#9DFFCE"/>
<path opacity="0.05" d="M447.02 381.909C474.135 354.795 503.66 331.883 534.188 311.957C526.764 299.989 518.7 288.085 509.932 276.309C477.484 297.707 446.06 322.56 416.855 351.765C362.903 405.717 323.265 464.384 293.996 522.624C306.305 530.987 318.679 538.645 331.095 545.621C358.593 489.536 395.799 433.131 447.02 381.909Z" fill="black"/>
<path opacity="0.07" d="M424.405 359.275C371.221 412.459 332.203 470.848 303.445 528.96C309.483 532.885 315.563 536.597 321.621 540.181C349.547 483.413 387.563 426.283 439.488 374.357C467.2 346.645 497.216 322.944 528.363 302.613C524.565 296.768 520.576 290.923 516.437 285.12C484.203 306.155 453.099 330.581 424.405 359.275Z" fill="black"/>
<path d="M959.913 170.709C959.913 170.709 636.564 162.176 431.934 366.805C211.561 587.179 235.838 894.784 235.838 894.784C235.838 894.784 543.444 919.061 763.817 698.688C968.425 494.059 959.913 170.709 959.913 170.709Z" fill="#33C481"/>
<path d="M551.319 759.04C551.319 747.264 541.783 737.707 529.986 737.707H423.084L697.218 463.573H809.068C820.844 463.573 830.402 454.037 830.402 442.24C830.402 430.443 820.866 420.907 809.068 420.907H739.884L869.399 291.392C877.719 283.072 877.74 269.568 869.399 261.227C861.058 252.885 847.554 252.907 839.234 261.227L543.788 556.672V427.157C543.788 415.381 534.252 405.824 522.455 405.824C510.658 405.824 501.122 415.36 501.122 427.157V599.339L190.572 909.888C182.252 918.208 182.231 931.712 190.572 940.053C198.914 948.395 212.418 948.373 220.738 940.053L380.418 780.373H529.964C541.783 780.352 551.319 770.816 551.319 759.04Z" fill="#9DFFCE"/>
</svg>
