<svg width="165" height="48" viewBox="0 0 165 48" fill="none" xmlns="http://www.w3.org/2000/svg">
<path d="M2.99609 3C2.99609 3 2.99609 14.314 10.3501 21.668C18.2701 29.588 29.0181 29.022 29.0181 29.022C29.0181 29.022 29.5841 18.274 21.6641 10.354C14.3101 3 2.99609 3 2.99609 3Z" fill="#21AD64"/>
<path d="M13.4448 8.20199C12.8918 8.20199 12.4448 8.64999 12.4448 9.20199V11.03L8.51584 7.10099C8.12484 6.70999 7.49284 6.70999 7.10184 7.10099C6.71084 7.49199 6.71084 8.12399 7.10184 8.51499L12.6498 14.063C12.7108 14.147 12.7818 14.218 12.8668 14.28L15.2938 16.708H12.7578C12.2058 16.708 11.7578 17.155 11.7578 17.708C11.7578 18.26 12.2048 18.708 12.7578 18.708H17.2938L29.0218 30.436C29.2168 30.631 29.4728 30.729 29.7288 30.729C29.9848 30.729 30.2408 30.631 30.4358 30.436C30.8268 30.045 30.8268 29.413 30.4358 29.022L14.4448 13.03V9.20199C14.4448 8.64999 13.9968 8.20199 13.4448 8.20199Z" fill="#9DFFCE"/>
<path opacity="0.05" d="M20.9543 17.902C22.2253 16.631 23.6093 15.557 25.0403 14.623C24.6923 14.062 24.3142 13.504 23.9032 12.952C22.3822 13.955 20.9093 15.12 19.5403 16.489C17.0113 19.018 15.1532 21.768 13.7812 24.498C14.3583 24.89 14.9383 25.249 15.5203 25.576C16.8093 22.947 18.5533 20.303 20.9543 17.902Z" fill="black"/>
<path opacity="0.07" d="M19.8927 16.841C17.3997 19.334 15.5707 22.071 14.2227 24.795C14.5057 24.979 14.7907 25.153 15.0747 25.321C16.3837 22.66 18.1657 19.982 20.5997 17.548C21.8987 16.249 23.3057 15.138 24.7657 14.185C24.5877 13.911 24.4007 13.637 24.2067 13.365C22.6957 14.351 21.2377 15.496 19.8927 16.841Z" fill="black"/>
<path d="M44.9976 8.002C44.9976 8.002 29.8406 7.60201 20.2486 17.194C9.91863 27.524 11.0566 41.943 11.0566 41.943C11.0566 41.943 25.4756 43.081 35.8056 32.751C45.3966 23.159 44.9976 8.002 44.9976 8.002Z" fill="#33C481"/>
<path d="M25.8435 35.58C25.8435 35.028 25.3965 34.58 24.8435 34.58H19.8325L32.6825 21.73H37.9255C38.4775 21.73 38.9255 21.283 38.9255 20.73C38.9255 20.177 38.4785 19.73 37.9255 19.73H34.6825L40.7535 13.659C41.1435 13.269 41.1445 12.636 40.7535 12.245C40.3625 11.854 39.7295 11.855 39.3395 12.245L25.4905 26.094V20.023C25.4905 19.471 25.0435 19.023 24.4905 19.023C23.9375 19.023 23.4905 19.47 23.4905 20.023V28.094L8.9335 42.651C8.5435 43.041 8.5425 43.674 8.9335 44.065C9.3245 44.456 9.9575 44.455 10.3475 44.065L17.8325 36.58H24.8425C25.3965 36.579 25.8435 36.132 25.8435 35.58Z" fill="#9DFFCE"/>
<path d="M56.048 32.5L63.728 15.7H65.48L73.16 32.5H71.288L64.232 16.732H64.952L57.896 32.5H56.048ZM59.072 28.012L59.6 26.572H69.368L69.896 28.012H59.072ZM80.4779 32.62C79.2779 32.62 78.1979 32.348 77.2379 31.804C76.2939 31.26 75.5499 30.508 75.0059 29.548C74.4619 28.572 74.1899 27.452 74.1899 26.188C74.1899 24.908 74.4619 23.788 75.0059 22.828C75.5499 21.868 76.2939 21.124 77.2379 20.596C78.1979 20.052 79.2779 19.78 80.4779 19.78C81.5819 19.78 82.5659 20.028 83.4299 20.524C84.3099 21.02 85.0059 21.748 85.5179 22.708C86.0459 23.652 86.3099 24.812 86.3099 26.188C86.3099 27.548 86.0539 28.708 85.5419 29.668C85.0299 30.628 84.3339 31.364 83.4539 31.876C82.5899 32.372 81.5979 32.62 80.4779 32.62ZM80.5979 31.108C81.4939 31.108 82.2939 30.908 82.9979 30.508C83.7179 30.092 84.2779 29.516 84.6779 28.78C85.0939 28.028 85.3019 27.164 85.3019 26.188C85.3019 25.196 85.0939 24.332 84.6779 23.596C84.2779 22.86 83.7179 22.292 82.9979 21.892C82.2939 21.476 81.4939 21.268 80.5979 21.268C79.7179 21.268 78.9259 21.476 78.2219 21.892C77.5179 22.292 76.9579 22.86 76.5419 23.596C76.1259 24.332 75.9179 25.196 75.9179 26.188C75.9179 27.164 76.1259 28.028 76.5419 28.78C76.9579 29.516 77.5179 30.092 78.2219 30.508C78.9259 30.908 79.7179 31.108 80.5979 31.108ZM85.3499 32.5V28.708L85.5179 26.164L85.2779 23.62V14.692H86.9819V32.5H85.3499ZM95.1116 32.62C94.0716 32.62 93.0876 32.476 92.1596 32.188C91.2316 31.884 90.5036 31.508 89.9756 31.06L90.7436 29.716C91.2556 30.1 91.9116 30.436 92.7116 30.724C93.5116 30.996 94.3516 31.132 95.2316 31.132C96.4316 31.132 97.2956 30.948 97.8236 30.58C98.3516 30.196 98.6156 29.692 98.6156 29.068C98.6156 28.604 98.4636 28.244 98.1596 27.988C97.8716 27.716 97.4876 27.516 97.0076 27.388C96.5276 27.244 95.9916 27.124 95.3996 27.028C94.8076 26.932 94.2156 26.82 93.6236 26.692C93.0476 26.564 92.5196 26.38 92.0396 26.14C91.5596 25.884 91.1676 25.54 90.8636 25.108C90.5756 24.676 90.4316 24.1 90.4316 23.38C90.4316 22.692 90.6236 22.076 91.0076 21.532C91.3916 20.988 91.9516 20.564 92.6876 20.26C93.4396 19.94 94.3516 19.78 95.4236 19.78C96.2396 19.78 97.0556 19.892 97.8716 20.116C98.6876 20.324 99.3596 20.604 99.8876 20.956L99.1436 22.324C98.5836 21.94 97.9836 21.668 97.3436 21.508C96.7036 21.332 96.0636 21.244 95.4236 21.244C94.2876 21.244 93.4476 21.444 92.9036 21.844C92.3756 22.228 92.1116 22.724 92.1116 23.332C92.1116 23.812 92.2556 24.188 92.5436 24.46C92.8476 24.732 93.2396 24.948 93.7196 25.108C94.2156 25.252 94.7516 25.372 95.3276 25.468C95.9196 25.564 96.5036 25.684 97.0796 25.828C97.6716 25.956 98.2076 26.14 98.6876 26.38C99.1836 26.604 99.5756 26.932 99.8636 27.364C100.168 27.78 100.32 28.332 100.32 29.02C100.32 29.756 100.112 30.396 99.6956 30.94C99.2956 31.468 98.7036 31.884 97.9196 32.188C97.1516 32.476 96.2156 32.62 95.1116 32.62ZM107.07 32.5V17.236H101.166V15.7H114.75V17.236H108.846V32.5H107.07ZM116.899 32.5V19.9H118.531V23.332L118.363 22.732C118.715 21.772 119.307 21.044 120.139 20.548C120.971 20.036 122.003 19.78 123.235 19.78V21.436C123.171 21.436 123.107 21.436 123.043 21.436C122.979 21.42 122.915 21.412 122.851 21.412C121.523 21.412 120.483 21.82 119.731 22.636C118.979 23.436 118.603 24.58 118.603 26.068V32.5H116.899ZM131.58 32.62C130.268 32.62 129.116 32.348 128.124 31.804C127.132 31.244 126.356 30.484 125.796 29.524C125.236 28.548 124.956 27.436 124.956 26.188C124.956 24.94 125.22 23.836 125.748 22.876C126.292 21.916 127.028 21.164 127.956 20.62C128.9 20.06 129.956 19.78 131.124 19.78C132.308 19.78 133.356 20.052 134.268 20.596C135.196 21.124 135.924 21.876 136.452 22.852C136.98 23.812 137.244 24.924 137.244 26.188C137.244 26.268 137.236 26.356 137.22 26.452C137.22 26.532 137.22 26.62 137.22 26.716H126.252V25.444H136.308L135.636 25.948C135.636 25.036 135.436 24.228 135.036 23.524C134.652 22.804 134.124 22.244 133.452 21.844C132.78 21.444 132.004 21.244 131.124 21.244C130.26 21.244 129.484 21.444 128.796 21.844C128.108 22.244 127.572 22.804 127.188 23.524C126.804 24.244 126.612 25.068 126.612 25.996V26.26C126.612 27.22 126.82 28.068 127.236 28.804C127.668 29.524 128.26 30.092 129.012 30.508C129.78 30.908 130.652 31.108 131.628 31.108C132.396 31.108 133.108 30.972 133.764 30.7C134.436 30.428 135.012 30.012 135.492 29.452L136.452 30.556C135.892 31.228 135.188 31.74 134.34 32.092C133.508 32.444 132.588 32.62 131.58 32.62ZM146.064 32.62C144.752 32.62 143.6 32.348 142.608 31.804C141.616 31.244 140.84 30.484 140.28 29.524C139.72 28.548 139.44 27.436 139.44 26.188C139.44 24.94 139.704 23.836 140.232 22.876C140.776 21.916 141.512 21.164 142.44 20.62C143.384 20.06 144.44 19.78 145.608 19.78C146.792 19.78 147.84 20.052 148.752 20.596C149.68 21.124 150.408 21.876 150.936 22.852C151.464 23.812 151.728 24.924 151.728 26.188C151.728 26.268 151.72 26.356 151.704 26.452C151.704 26.532 151.704 26.62 151.704 26.716H140.736V25.444H150.792L150.12 25.948C150.12 25.036 149.92 24.228 149.52 23.524C149.136 22.804 148.608 22.244 147.936 21.844C147.264 21.444 146.488 21.244 145.608 21.244C144.744 21.244 143.968 21.444 143.28 21.844C142.592 22.244 142.056 22.804 141.672 23.524C141.288 24.244 141.096 25.068 141.096 25.996V26.26C141.096 27.22 141.304 28.068 141.72 28.804C142.152 29.524 142.744 30.092 143.496 30.508C144.264 30.908 145.136 31.108 146.112 31.108C146.88 31.108 147.592 30.972 148.248 30.7C148.92 30.428 149.496 30.012 149.976 29.452L150.936 30.556C150.376 31.228 149.672 31.74 148.824 32.092C147.992 32.444 147.072 32.62 146.064 32.62ZM158.58 32.62C157.54 32.62 156.556 32.476 155.628 32.188C154.7 31.884 153.972 31.508 153.444 31.06L154.212 29.716C154.724 30.1 155.38 30.436 156.18 30.724C156.98 30.996 157.82 31.132 158.7 31.132C159.9 31.132 160.764 30.948 161.292 30.58C161.82 30.196 162.084 29.692 162.084 29.068C162.084 28.604 161.932 28.244 161.628 27.988C161.34 27.716 160.956 27.516 160.476 27.388C159.996 27.244 159.46 27.124 158.868 27.028C158.276 26.932 157.684 26.82 157.092 26.692C156.516 26.564 155.988 26.38 155.508 26.14C155.028 25.884 154.636 25.54 154.332 25.108C154.044 24.676 153.9 24.1 153.9 23.38C153.9 22.692 154.092 22.076 154.476 21.532C154.86 20.988 155.42 20.564 156.156 20.26C156.908 19.94 157.82 19.78 158.892 19.78C159.708 19.78 160.524 19.892 161.34 20.116C162.156 20.324 162.828 20.604 163.356 20.956L162.612 22.324C162.052 21.94 161.452 21.668 160.812 21.508C160.172 21.332 159.532 21.244 158.892 21.244C157.756 21.244 156.916 21.444 156.372 21.844C155.844 22.228 155.58 22.724 155.58 23.332C155.58 23.812 155.724 24.188 156.012 24.46C156.316 24.732 156.708 24.948 157.188 25.108C157.684 25.252 158.22 25.372 158.796 25.468C159.388 25.564 159.972 25.684 160.548 25.828C161.14 25.956 161.676 26.14 162.156 26.38C162.652 26.604 163.044 26.932 163.332 27.364C163.636 27.78 163.788 28.332 163.788 29.02C163.788 29.756 163.58 30.396 163.164 30.94C162.764 31.468 162.172 31.884 161.388 32.188C160.62 32.476 159.684 32.62 158.58 32.62Z" fill="#081C15"/>
</svg>
